<svg width="76" height="73" viewBox="0 0 76 73" fill="none" xmlns="http://www.w3.org/2000/svg">
<path d="M58.4702 18.6354C58.9956 17.9071 59.1404 16.973 58.8589 16.1232C58.5775 15.2708 57.902 14.6006 57.0416 14.3155L55.0124 13.64H55.0097C53.8625 13.2468 53.0851 12.1913 53.0664 10.9932L53.0369 8.88206C53.0208 7.9875 52.5785 7.15096 51.8441 6.62585C51.1069 6.10071 50.1607 5.94502 49.2922 6.2089L47.2469 6.82904C46.0863 7.19057 44.8183 6.78946 44.0892 5.82888L42.816 4.14C42.2691 3.42222 41.4114 3 40.5 3C39.5886 3 38.7309 3.42222 38.184 4.14L36.9108 5.82888C36.179 6.78682 34.9165 7.19317 33.7531 6.84221L31.7078 6.20888C30.8394 5.945 29.8931 6.10069 29.1559 6.62583C28.4215 7.15096 27.9792 7.98747 27.9631 8.88204L27.9336 10.9932C27.9149 12.1912 27.1375 13.2467 25.9903 13.64L23.9611 14.3155H23.9585C23.098 14.6005 22.4225 15.2708 22.1411 16.1232C21.8596 16.9729 22.0044 17.907 22.5298 18.6354L23.7601 20.3665C24.4597 21.3455 24.4597 22.6544 23.7601 23.6334L22.5298 25.3646C22.0044 26.0929 21.8596 27.027 22.1411 27.8768C22.4225 28.7292 23.098 29.3994 23.9585 29.6845L25.9876 30.36H25.9903C27.1375 30.7532 27.9149 31.8087 27.9336 33.0068L27.9631 35.1179C27.9792 36.0125 28.4215 36.849 29.1559 37.3742C29.8931 37.8993 30.8393 38.055 31.7078 37.7911L33.7531 37.171C34.9138 36.8094 36.1817 37.2105 36.9108 38.1711L38.184 39.86C38.7309 40.5778 39.5886 41 40.5 41C41.4114 41 42.2691 40.5778 42.816 39.86L44.0892 38.1711C44.821 37.2132 46.0835 36.8095 47.2469 37.1578L49.2922 37.7911C50.1606 38.055 51.1069 37.8993 51.8441 37.3742C52.5785 36.849 53.0208 36.0125 53.0369 35.118L53.0664 33.0068C53.0852 31.8088 53.8625 30.7533 55.0097 30.36L57.0389 29.6845H57.0416C57.902 29.3995 58.5775 28.7292 58.8589 27.8768C59.1404 27.0271 58.9956 26.0956 58.4702 25.3646L57.2399 23.6335C56.5403 22.6545 56.5403 21.3456 57.2399 20.3666L58.4702 18.6354ZM40.4997 32.231C37.7441 32.231 35.0985 31.1543 33.1497 29.2358C31.201 27.3174 30.1073 24.7128 30.1073 22C30.1073 19.2872 31.201 16.6826 33.1497 14.7641C35.0984 12.8457 37.7441 11.769 40.4997 11.769C43.2553 11.769 45.901 12.8457 47.8497 14.7641C49.7984 16.6826 50.8921 19.2872 50.8921 22C50.8894 24.7127 49.7958 27.3147 47.8471 29.2331C45.8983 31.1516 43.2553 32.2283 40.4997 32.231Z" fill="#FAD00A"/>
<path d="M46.3048 18.5854H43.2932C43.0164 18.5854 42.765 18.4127 42.6558 18.1442L41.1399 14.4386H41.1373C41.0282 14.1728 40.7768 14 40.5 14C40.2232 14 39.9718 14.1728 39.8626 14.4386L38.3467 18.1442H38.3441C38.2349 18.4127 37.9835 18.5854 37.7068 18.5854H34.6952C34.4006 18.5854 34.1365 18.7795 34.04 19.0719C33.941 19.3616 34.0299 19.6859 34.2609 19.88L36.8917 22.081C37.1126 22.2671 37.204 22.5755 37.1228 22.8572L35.9166 27.0626C35.8302 27.3656 35.9394 27.6899 36.1832 27.868C36.4295 28.0488 36.7596 28.0434 36.9983 27.8547L40.0836 25.4331V25.4304C40.3299 25.239 40.6701 25.239 40.9164 25.4304L44.0017 27.8521V27.8547C44.2429 28.0434 44.5705 28.0488 44.8168 27.868C45.0606 27.6899 45.1698 27.3629 45.0834 27.0626L43.8772 22.8572C43.796 22.5728 43.8874 22.2671 44.1109 22.081L46.7416 19.88H46.7391C46.9701 19.6859 47.059 19.3616 46.96 19.0719C46.8635 18.7795 46.5994 18.5854 46.3048 18.5854Z" fill="#FAD00A"/>
<path opacity="0.2" d="M63.0501 49.0425C62.8283 47.4578 61.8351 46.0886 60.3983 45.3846C58.9197 44.6453 57.1647 44.7 55.7343 45.5325L39.5469 57.5701V57.5669C38.7048 58.0458 37.7501 58.2966 36.7794 58.2966H29.8879C29.3961 58.2998 28.9204 58.1069 28.57 57.7598C28.2196 57.4126 28.0235 56.9401 28.0235 56.4451C28.0235 55.9533 28.2196 55.4808 28.57 55.1304C28.9203 54.7833 29.3961 54.5904 29.8879 54.5936H34.944C36.7376 54.5936 38.1968 53.1536 38.2226 51.36V51.3022C38.2129 49.4957 36.7472 48.0397 34.944 48.0364H15.8157V70.0833C15.8189 70.3244 15.7996 70.5622 15.7578 70.7969H38.454C40.9965 70.8001 43.4459 69.8551 45.3295 68.145L61.1408 53.7483C62.5487 52.6168 63.2687 50.8361 63.0501 49.0425Z" fill="#FAD00A"/>
<path opacity="0.2" d="M2.91541 43.8555H10.7166C11.488 43.8555 12.2305 44.164 12.7769 44.7105C13.3234 45.2569 13.6288 45.9994 13.6288 46.7709V70.0841C13.6288 71.6945 12.327 72.9995 10.7166 72.9995H2.91541C1.30506 72.9995 0 71.6946 0 70.0841V46.7709C0 45.1605 1.30498 43.8555 2.91541 43.8555Z" fill="#FAD00A"/>
</svg>
