<svg width="76" height="73" viewBox="0 0 76 73" fill="none" xmlns="http://www.w3.org/2000/svg">
<path d="M7.61836 56.7617H31.7824C32.3058 56.796 32.7989 57.0162 33.1699 57.3816C33.5408 57.747 33.7645 58.2326 33.7992 58.7481V64.6947C33.7992 65.2215 33.5867 65.7268 33.2085 66.0993C32.8303 66.4718 32.3173 66.6811 31.7824 66.6811H7.61836C7.09602 66.6454 6.60452 66.4245 6.23488 66.0592C5.86523 65.694 5.64249 65.2092 5.60791 64.6947V58.7481C5.60791 58.2224 5.81952 57.7181 6.19636 57.3458C6.57321 56.9734 7.08456 56.7634 7.61836 56.7617Z" fill="#FAD00A"/>
<path d="M20.7033 24.0395C20.7033 25.0198 20.4081 25.9781 19.8552 26.7932C19.3022 27.6083 18.5162 28.2436 17.5966 28.6187C16.677 28.9939 15.6652 29.0921 14.6889 28.9008C13.7127 28.7096 12.816 28.2375 12.1122 27.5443C11.4084 26.8511 10.9291 25.968 10.7349 25.0065C10.5407 24.045 10.6404 23.0484 11.0213 22.1427C11.4022 21.2371 12.0472 20.463 12.8748 19.9183C13.7024 19.3737 14.6754 19.083 15.6707 19.083C17.0055 19.083 18.2855 19.6052 19.2293 20.5347C20.1731 21.4643 20.7033 22.725 20.7033 24.0395Z" fill="#FAD00A"/>
<path d="M37.8287 8.17625C37.83 9.15835 37.5354 10.1187 36.9822 10.9359C36.429 11.753 35.6421 12.3901 34.721 12.7665C33.8 13.1429 32.7863 13.2417 31.8083 13.0504C30.8302 12.8591 29.9317 12.3863 29.2266 11.6919C28.5215 10.9974 28.0415 10.1125 27.8472 9.14924C27.653 8.18595 27.7534 7.18756 28.1355 6.28046C28.5177 5.37335 29.1646 4.59832 29.9942 4.05348C30.8239 3.50864 31.799 3.21848 32.7962 3.21973C34.1309 3.21973 35.4109 3.74193 36.3547 4.67146C37.2985 5.60099 37.8287 6.8617 37.8287 8.17625Z" fill="#FAD00A"/>
<path d="M57.9601 17.0976C57.9614 18.0797 57.6667 19.0401 57.1135 19.8572C56.5603 20.6743 55.7734 21.3114 54.8524 21.6878C53.9314 22.0643 52.9177 22.1631 51.9396 21.9718C50.9615 21.7805 50.0631 21.3077 49.358 20.6133C48.6529 19.9188 48.1728 19.0339 47.9786 18.0706C47.7844 17.1073 47.8847 16.1089 48.2669 15.2018C48.6491 14.2947 49.2959 13.5197 50.1256 12.9749C50.9552 12.43 51.9304 12.1399 52.9275 12.1411C54.2622 12.1411 55.5423 12.6633 56.4861 13.5928C57.4299 14.5224 57.9601 15.7831 57.9601 17.0976Z" fill="#FAD00A"/>
<path d="M10.6413 43.8745H18.696C19.2203 43.9077 19.7142 44.1287 20.0845 44.4958C20.4549 44.8628 20.6761 45.3507 20.7065 45.8673V52.7975C20.7073 53.0581 20.6559 53.3162 20.5553 53.5572C20.4546 53.7982 20.3067 54.0172 20.1199 54.2017C19.9331 54.3863 19.7112 54.5327 19.4669 54.6326C19.2225 54.7325 18.9606 54.7839 18.696 54.7839H10.6413C10.1185 54.7495 9.62628 54.529 9.25637 54.1635C8.88645 53.7981 8.66415 53.3125 8.6309 52.7975V45.8673C8.6292 45.6062 8.67995 45.3473 8.78022 45.1056C8.88049 44.8639 9.02831 44.6442 9.21517 44.4589C9.40203 44.2737 9.62423 44.1267 9.86899 44.0264C10.1138 43.9261 10.3762 43.8745 10.6413 43.8745Z" fill="#FAD00A"/>
<path opacity="0.4" d="M48.9016 47.8384C48.769 47.8376 48.6376 47.8626 48.5149 47.9119C48.3922 47.9613 48.2806 48.0341 48.1866 48.1261C48.0926 48.2181 48.0179 48.3276 47.967 48.4481C47.9161 48.5686 47.8899 48.6979 47.8899 48.8284V55.7714C47.8899 55.9019 47.9161 56.0312 47.967 56.1517C48.0179 56.2722 48.0926 56.3817 48.1866 56.4737C48.2806 56.5657 48.3922 56.6385 48.5149 56.6879C48.6376 56.7372 48.769 56.7622 48.9016 56.7614H56.9562C57.2228 56.7614 57.4785 56.6571 57.667 56.4714C57.8555 56.2858 57.9615 56.0339 57.9615 55.7714V48.8284C57.9615 48.6984 57.9354 48.5697 57.8849 48.4496C57.8344 48.3294 57.7604 48.2203 57.667 48.1284C57.5737 48.0364 57.4629 47.9635 57.3409 47.9138C57.219 47.864 57.0882 47.8384 56.9562 47.8384H53.9341V50.8148C53.9138 51.0646 53.7988 51.2976 53.6119 51.4675C53.425 51.6374 53.18 51.7318 52.9257 51.7318C52.6713 51.7318 52.4263 51.6374 52.2394 51.4675C52.0525 51.2976 51.9375 51.0646 51.9172 50.8148V47.8384H48.9016Z" fill="#FAD00A"/>
<path opacity="0.4" d="M62.9947 58.7495H59.9726V60.7296C59.9726 60.9922 59.8667 61.244 59.6782 61.4296C59.4897 61.6153 59.234 61.7196 58.9674 61.7196C58.7008 61.7196 58.4451 61.6153 58.2566 61.4296C58.0681 61.244 57.9622 60.9922 57.9622 60.7296V58.7495H54.9401C54.6735 58.7495 54.4178 58.8538 54.2293 59.0395C54.0407 59.2252 53.9348 59.477 53.9348 59.7395V65.6861C53.934 65.8166 53.9594 65.9461 54.0095 66.0669C54.0596 66.1878 54.1335 66.2977 54.227 66.3903C54.3204 66.4829 54.4315 66.5564 54.5539 66.6065C54.6763 66.6567 54.8075 66.6825 54.9401 66.6825H62.9947C63.1273 66.6825 63.2585 66.6567 63.3809 66.6065C63.5033 66.5564 63.6144 66.4829 63.7078 66.3903C63.8012 66.2977 63.8751 66.1878 63.9253 66.0669C63.9754 65.9461 64.0008 65.8166 63.9999 65.6861V59.7395C63.9999 59.477 63.894 59.2252 63.7055 59.0395C63.517 58.8538 63.2613 58.7495 62.9947 58.7495Z" fill="#FAD00A"/>
<path opacity="0.4" d="M50.9122 58.7495H47.8901V60.7296C47.8901 60.9922 47.7842 61.244 47.5957 61.4296C47.4072 61.6153 47.1515 61.7196 46.8849 61.7196C46.6183 61.7196 46.3626 61.6153 46.1741 61.4296C45.9856 61.244 45.8796 60.9922 45.8796 60.7296V58.7495H42.8575C42.5909 58.7495 42.3353 58.8538 42.1467 59.0395C41.9582 59.2252 41.8523 59.477 41.8523 59.7395V65.6861C41.8515 65.8166 41.8768 65.9461 41.927 66.0669C41.9771 66.1878 42.051 66.2977 42.1444 66.3903C42.2379 66.4829 42.349 66.5564 42.4714 66.6065C42.5937 66.6567 42.725 66.6825 42.8575 66.6825H50.9122C51.0448 66.6825 51.176 66.6567 51.2984 66.6065C51.4208 66.5564 51.5319 66.4829 51.6253 66.3903C51.7187 66.2977 51.7926 66.1878 51.8428 66.0669C51.8929 65.9461 51.9183 65.8166 51.9174 65.6861V59.7395C51.9174 59.477 51.8115 59.2252 51.623 59.0395C51.4345 58.8538 51.1788 58.7495 50.9122 58.7495Z" fill="#FAD00A"/>
<path d="M45.8832 17.1C45.8832 15.9005 46.1991 14.7215 46.7999 13.6782C47.4007 12.6348 48.266 11.7627 49.3112 11.1471L39.7165 6.89502C39.7989 7.31321 39.8399 7.7383 39.839 8.16429C39.8378 9.36615 39.5217 10.5474 38.9211 11.5936C38.3206 12.6398 37.4559 13.5156 36.4109 14.1362L46.0056 18.3883C45.922 17.9639 45.881 17.5323 45.8832 17.1Z" fill="#FAD00A"/>
<path d="M55.9479 23.3687C55.005 23.8117 53.9736 24.0416 52.929 24.0416C51.8843 24.0416 50.8529 23.8117 49.9101 23.3687V29.5119L45.2513 33.1738C45.1334 33.2654 45.0379 33.382 44.9721 33.515C44.9063 33.6479 44.8718 33.7938 44.8711 33.9417V39.8946C44.8725 40.0792 44.9255 40.2598 45.0244 40.4166C45.1233 40.5733 45.2643 40.7002 45.4317 40.7831L49.459 42.7632C49.6116 42.8386 49.7812 42.8746 49.9517 42.8676C50.1223 42.8606 50.2883 42.811 50.434 42.7234C50.5797 42.6358 50.7004 42.513 50.7846 42.3668C50.8688 42.2205 50.9138 42.0555 50.9153 41.8874V36.4676L52.9258 35.1475L54.9426 36.4676V41.8874C54.943 42.0571 54.9876 42.2238 55.0723 42.3716C55.1569 42.5194 55.2787 42.6433 55.4259 42.7314C55.5838 42.8306 55.7671 42.8834 55.9543 42.8838C56.1111 42.8827 56.2655 42.8458 56.4054 42.7759L60.4263 40.7894C60.5929 40.7062 60.733 40.5791 60.8308 40.4223C60.9286 40.2655 60.9804 40.085 60.9804 39.901V33.9544C60.9799 33.8027 60.9436 33.6531 60.8742 33.5177C60.8049 33.3822 60.7045 33.2644 60.5809 33.1738L55.9221 29.4992L55.9479 23.3687Z" fill="#FAD00A"/>
<path d="M22.6439 23.0177L31.3365 14.9578C29.9296 14.6609 28.6479 13.9494 27.6615 12.9179C26.6751 11.8863 26.0308 10.5835 25.8142 9.18262L17.1216 17.2489C18.5275 17.5453 19.8086 18.2559 20.7949 19.2862C21.7812 20.3166 22.4261 21.618 22.6439 23.0177Z" fill="#FAD00A"/>
<path d="M21.6075 27.7773C21.0979 28.566 20.4313 29.2448 19.6481 29.7729C18.8649 30.301 17.9812 30.6674 17.0504 30.85C16.1195 31.0327 15.1607 31.0278 14.2318 30.8357C13.3029 30.6435 12.4231 30.2681 11.6455 29.732V38.0394C11.6456 39.4488 12.1549 40.8121 13.0825 41.8853H18.695C19.2249 41.8853 19.7497 41.9883 20.2391 42.1885C20.7286 42.3886 21.1731 42.6819 21.5473 43.0516C21.9214 43.4212 22.2178 43.86 22.4194 44.3427C22.6211 44.8254 22.724 45.3426 22.7223 45.8645V52.7947C22.7251 53.4926 22.5382 54.1785 22.181 54.7812H31.7822C32.3171 54.7812 32.8301 54.5719 33.2083 54.1994C33.5866 53.8268 33.7991 53.3216 33.7991 52.7947V45.2299C33.7958 44.1435 33.4339 43.0877 32.7681 42.2217L21.6075 27.7773Z" fill="#FAD00A"/>
</svg>
