<svg width="71" height="73" viewBox="0 0 71 73" fill="none" xmlns="http://www.w3.org/2000/svg">
<path d="M60.688 34.9567C60.688 37.9543 60.2083 40.7121 59.3688 43.35H59.1289C59.1289 43.35 59.2488 42.9903 59.4887 42.2709C59.7286 41.5515 59.9684 40.5922 60.2083 39.2733C60.4482 37.9543 60.5681 36.2756 60.5681 34.3571C60.5681 32.4386 60.3282 30.2803 59.7286 28.0021C59.6086 27.5225 59.4887 27.0429 59.3688 26.5633C59.3688 26.5633 59.3688 26.5633 59.3688 26.4434C60.2083 29.2012 60.688 32.0789 60.688 34.9567Z" fill="#37B2EF"/>
<path opacity="0.2" d="M57.7105 62.5357C60.5587 62.5234 62.8576 60.205 62.8453 57.3574C62.833 54.5099 60.5141 52.2115 57.6659 52.2238C54.8177 52.2361 52.5188 54.5545 52.5311 57.402C52.5434 60.2496 54.8623 62.548 57.7105 62.5357Z" fill="#FAD00A"/>
<path opacity="0.2" d="M47.1673 68.8252C48.3974 66.706 47.6762 63.9912 45.5565 62.7614C43.4368 61.5316 40.7214 62.2527 39.4913 64.3718C38.2613 66.491 38.9825 69.2059 41.1022 70.4357C43.2218 71.6654 45.9373 70.9444 47.1673 68.8252Z" fill="#FAD00A"/>
<path opacity="0.2" d="M28.1527 70.5791C29.9976 69.5357 30.6471 67.1946 29.6034 65.3501C28.5597 63.5056 26.218 62.8563 24.3732 63.8997C22.5283 64.9432 21.8788 67.2843 22.9225 69.1288C23.9661 70.9732 26.3078 71.6226 28.1527 70.5791Z" fill="#FAD00A"/>
<path opacity="0.2" d="M14.6544 60.1327C14.6747 58.8084 13.6173 57.7183 12.2927 57.698C10.9681 57.6777 9.87787 58.7349 9.85757 60.0592C9.83726 61.3835 10.8946 62.4735 12.2192 62.4938C13.5438 62.5141 14.6341 61.457 14.6544 60.1327Z" fill="#FAD00A"/>
<path d="M71 36.1556C71 39.7528 70.5203 43.1102 69.4409 46.4675L59.2466 43.4699C60.0861 40.832 60.5659 37.9542 60.5659 35.0765C60.5659 32.0788 60.0861 29.321 59.2466 26.6831C57.5676 21.4072 54.2095 16.8508 50.0118 13.4935C49.8919 13.3736 49.772 13.2537 49.652 13.2537C47.7331 11.8148 45.5743 10.6157 43.2956 9.6565C41.8564 9.05697 40.2973 8.57734 38.6182 8.21763L38.0186 8.09772L37.4189 7.97782C37.0591 7.85791 36.5794 7.85791 36.2196 7.73801L35.6199 7.6181C35.3801 7.6181 35.2601 7.6181 35.0203 7.6181H34.3007H33.9409H33.8209H33.701C30.4628 7.49819 27.1047 7.97782 23.9865 8.93706C20.8682 9.89631 17.8699 11.4551 15.3514 13.3736C12.8328 15.2921 10.674 17.5703 8.99493 19.9684C8.5152 20.5679 8.15541 21.1674 7.79561 21.767C7.55574 22.1267 7.43581 22.3665 7.31588 22.7262C7.19595 23.0859 6.95608 23.3257 6.83615 23.6855C6.23649 24.8845 5.75676 26.2035 5.27703 27.4025C5.03716 28.0021 4.91723 28.6016 4.67737 29.2011C4.55743 29.4409 4.55743 29.8006 4.4375 30.0404C4.4375 30.2803 4.31757 30.64 4.31757 30.8798C4.31757 30.9997 4.19764 31.1196 4.19764 31.3594C4.19764 31.4793 4.19764 31.5992 4.0777 31.839C4.0777 32.0788 3.95777 32.4386 3.95777 32.6784C3.83784 33.2779 3.83784 33.7575 3.71791 34.2371C3.71791 34.8367 3.59797 35.3163 3.59797 35.9158V36.0357V36.2755C3.59797 36.3954 3.59797 36.5154 3.59797 36.6353C3.59797 36.8751 3.59797 37.1149 3.59797 37.3547C3.59797 38.3139 3.59797 39.1533 3.71791 39.8727C3.83784 41.4315 4.0777 42.6305 4.31757 43.35C4.4375 43.7097 4.4375 44.0694 4.55743 44.3092C4.55743 44.549 4.67737 44.6689 4.67737 44.6689L1.43919 45.5083C1.43919 45.5083 1.43919 45.3884 1.31926 45.1486C1.19932 44.9087 1.07939 44.549 0.959459 44.1893C0.839527 43.7097 0.599662 43.1102 0.47973 42.3907C0.119932 40.4722 0 38.4338 0 36.2755C0 16.611 15.951 0.663574 35.5 0.663574C44.375 0.663574 52.4105 3.90103 58.647 9.17687C61.4054 11.575 63.8041 14.2129 65.603 17.3305C68.9611 22.8461 71 29.321 71 36.1556Z" fill="#FAD00A"/>
<path d="M20.6294 35.1971C20.1497 36.3962 20.5095 37.5952 21.349 38.5545C24.1075 41.3123 25.9064 43.2308 28.7848 45.9886C29.1446 46.3484 29.6244 46.5882 29.9842 46.7081C31.3034 47.0678 32.3828 46.828 33.3423 45.8687C35.621 43.5905 38.2595 41.0725 41.3777 37.955C43.8963 35.4369 46.8946 32.6791 49.2933 30.281C49.4132 30.1611 49.4132 30.1611 49.5331 30.0412C50.4926 29.082 50.6125 27.4033 49.8929 26.3241C49.2933 25.3649 48.3338 24.8853 47.2544 24.8853C46.4149 24.8853 45.5754 25.245 44.9757 25.8445C42.9369 27.8829 40.2983 30.4009 38.3794 32.3194L38.0196 32.6791C35.9808 34.7175 33.5821 36.9957 31.5433 39.0341L31.0635 39.5137L25.9064 34.2379C25.3068 33.6384 24.4673 33.2786 23.6277 33.2786C23.5078 33.2786 23.5078 33.2786 23.3879 33.2786C22.0686 33.2786 21.1092 33.9981 20.6294 35.1971Z" fill="#FAD00A"/>
</svg>
