<svg width="76" height="73" viewBox="0 0 76 73" fill="none" xmlns="http://www.w3.org/2000/svg">
<path d="M27.6484 2.33789V9.96234C27.6484 10.827 28.3513 11.4558 29.1322 11.4558H32.8805V15.1501C32.8805 16.958 34.2862 18.3728 36.0823 18.3728C37.8784 18.3728 39.284 16.958 39.284 15.1501V11.4558H43.0324C43.8914 11.4558 44.5161 10.7484 44.5161 9.96234V2.33789H27.6484Z" fill="#FAD00A"/>
<path d="M30.6914 13.6561H29.1296C28.0363 13.6561 27.0211 13.1845 26.3964 12.3984L22.8042 15.3067C22.0233 15.9356 21.7109 16.8002 21.7109 17.6648V26.3897C21.7109 27.8045 22.8823 28.9836 24.2879 28.9836H27.802V19.1583L30.9257 16.643C30.7695 16.1714 30.7695 15.6997 30.7695 15.1495V13.6561H30.6914Z" fill="#FAD00A"/>
<path d="M26.0078 51.7017H46.1553V33.623H26.0078V51.7017ZM34.2074 35.8239H38.0338V39.0466L36.0816 38.182L34.2074 39.0466V35.8239Z" fill="#FAD00A"/>
<path d="M49.3559 15.3067L45.7637 12.3984C45.0609 13.1059 44.1238 13.6561 43.0305 13.6561H41.4687V15.1495C41.4687 15.6997 41.3906 16.1714 41.3125 16.643L44.4361 19.1583V28.9836H47.9502C49.3559 28.9836 50.5272 27.8045 50.5272 26.3897V17.6648C50.4492 16.8788 50.1368 15.9356 49.3559 15.3067Z" fill="#FAD00A"/>
<path opacity="0.2" d="M63.098 53.9023H9.13707C4.60778 53.9023 0.9375 57.5967 0.9375 62.077C0.9375 66.636 4.60778 70.3303 9.13707 70.3303H63.098C67.6273 70.3303 71.2976 66.636 71.2976 62.077C71.2195 57.5967 67.5492 53.9023 63.098 53.9023ZM64.6598 63.2561C64.5818 63.2561 64.5037 63.2561 64.5037 63.2561C64.0351 65.0639 62.3952 66.3216 60.4429 66.3216C58.4907 66.3216 56.9288 64.9853 56.3822 63.2561C56.3041 63.2561 56.3041 63.2561 56.226 63.2561H40.2954C40.2173 63.2561 40.2173 63.2561 40.1392 63.2561C39.6707 65.0639 38.0308 66.3216 36.0785 66.3216C34.1262 66.3216 32.5644 64.9853 32.0178 63.2561C31.9397 63.2561 31.8616 63.2561 31.8616 63.2561H16.0091C15.931 63.2561 15.931 63.2561 15.8529 63.2561C15.3844 65.0639 13.7444 66.3216 11.7922 66.3216C9.83989 66.3216 8.27806 64.9853 7.73143 63.2561C7.65334 63.2561 7.65334 63.2561 7.57524 63.2561H3.28023C3.20214 62.863 3.20214 62.47 3.20214 62.077C3.20214 61.684 3.20214 61.291 3.28023 60.898H7.73143C8.19997 59.0901 9.83989 57.8325 11.7922 57.8325C13.7444 57.8325 15.3063 59.0901 15.8529 60.898H32.0959C32.5644 59.0901 34.2043 57.8325 36.1566 57.8325C38.1089 57.8325 39.6707 59.0901 40.2173 60.898H56.4603C56.9288 59.0901 58.5687 57.8325 60.521 57.8325C62.4733 57.8325 64.0351 59.0901 64.5818 60.898H69.033C69.111 61.291 69.1891 61.684 69.1891 62.077C69.1891 62.47 69.111 62.863 69.033 63.2561H64.6598Z" fill="#FAD00A"/>
</svg>
