<svg width="32" height="35" viewBox="0 0 32 35" fill="none" xmlns="http://www.w3.org/2000/svg">
<g clip-path="url(#clip0_195_388)">
<path d="M29.4036 1.47649C28.9405 1.00681 28.3896 0.634458 27.7829 0.381014C27.1761 0.12757 26.5254 -0.00192838 25.8687 2.17007e-05H5.49341C4.26861 0.00157825 3.09443 0.492917 2.22837 1.36628C1.36231 2.23964 0.875079 3.42373 0.873535 4.65885V31.0294C0.875046 31.146 0.921623 31.2573 1.00334 31.3397C1.08506 31.4221 1.19546 31.4691 1.31102 31.4706H9.23247V28.8588C8.3482 28.0362 7.73058 26.9637 7.46033 25.7816C7.19008 24.5994 7.27977 23.3624 7.71767 22.2325C8.15558 21.1025 8.92133 20.132 9.91486 19.4479C10.9084 18.7637 12.0835 18.3977 13.2865 18.3977C14.4896 18.3977 15.6647 18.7637 16.6582 19.4479C17.6517 20.132 18.4175 21.1025 18.8554 22.2325C19.2933 23.3624 19.383 24.5994 19.1127 25.7816C18.8425 26.9637 18.2248 28.0362 17.3406 28.8588V31.4706H21.2955C21.4115 31.4706 21.5228 31.4241 21.6048 31.3414C21.6869 31.2587 21.733 31.1464 21.733 31.0294V12.9883H30.436C30.5516 12.9867 30.662 12.9398 30.7437 12.8574C30.8254 12.7749 30.872 12.6636 30.8735 12.5471V5.04708C30.8752 4.38342 30.746 3.72604 30.4937 3.1131C30.2414 2.50016 29.8708 1.94386 29.4036 1.47649ZM17.5972 15.2765H5.48174C5.36571 15.2765 5.25443 15.23 5.17239 15.1473C5.09034 15.0645 5.04425 14.9523 5.04425 14.8353C5.04425 14.7183 5.09034 14.6061 5.17239 14.5234C5.25443 14.4406 5.36571 14.3941 5.48174 14.3941H17.5972C17.7133 14.3941 17.8245 14.4406 17.9066 14.5234C17.9886 14.6061 18.0347 14.7183 18.0347 14.8353C18.0347 14.9523 17.9886 15.0645 17.9066 15.1473C17.8245 15.23 17.7133 15.2765 17.5972 15.2765ZM17.5972 11.7118H5.48174C5.36571 11.7118 5.25443 11.6653 5.17239 11.5826C5.09034 11.4998 5.04425 11.3876 5.04425 11.2706C5.04425 11.1536 5.09034 11.0414 5.17239 10.9587C5.25443 10.8759 5.36571 10.8294 5.48174 10.8294H17.5972C17.7133 10.8294 17.8245 10.8759 17.9066 10.9587C17.9886 11.0414 18.0347 11.1536 18.0347 11.2706C18.0347 11.3876 17.9886 11.4998 17.9066 11.5826C17.8245 11.6653 17.7133 11.7118 17.5972 11.7118ZM17.5972 8.14708H5.48174C5.36571 8.14708 5.25443 8.1006 5.17239 8.01786C5.09034 7.93513 5.04425 7.82291 5.04425 7.7059C5.04425 7.5889 5.09034 7.47668 5.17239 7.39395C5.25443 7.31121 5.36571 7.26473 5.48174 7.26473H17.5972C17.7133 7.26473 17.8245 7.31121 17.9066 7.39395C17.9886 7.47668 18.0347 7.5889 18.0347 7.7059C18.0347 7.82291 17.9886 7.93513 17.9066 8.01786C17.8245 8.1006 17.7133 8.14708 17.5972 8.14708ZM29.9986 12.1059H21.7388V5.04708C21.7388 3.94253 22.1739 2.88322 22.9484 2.10219C23.7229 1.32116 24.7734 0.882375 25.8687 0.882375C26.964 0.882375 28.0144 1.32116 28.7889 2.10219C29.5634 2.88322 29.9986 3.94253 29.9986 5.04708V12.1059Z" fill="#FBD10A"/>
<g opacity="0.4">
<path d="M13.3157 19.2939C12.3062 19.2939 11.3194 19.5958 10.4801 20.1614C9.6407 20.7269 8.9865 21.5308 8.60019 22.4713C8.21388 23.4118 8.1128 24.4467 8.30974 25.4451C8.50668 26.4436 8.9928 27.3607 9.70661 28.0805C10.4204 28.8004 11.3299 29.2906 12.32 29.4892C13.31 29.6878 14.3363 29.5858 15.2689 29.1963C16.2016 28.8067 16.9987 28.147 17.5595 27.3006C18.1204 26.4541 18.4197 25.459 18.4197 24.441C18.4182 23.0764 17.8799 21.7681 16.9231 20.8032C15.9662 19.8383 14.6689 19.2955 13.3157 19.2939ZM13.3157 26.6469C12.8831 26.6469 12.4601 26.5175 12.1004 26.2751C11.7407 26.0327 11.4603 25.6882 11.2948 25.2852C11.1292 24.8821 11.0859 24.4386 11.1703 24.0107C11.2547 23.5828 11.463 23.1897 11.7689 22.8812C12.0749 22.5727 12.4646 22.3626 12.8889 22.2775C13.3133 22.1924 13.7531 22.2361 14.1528 22.403C14.5525 22.57 14.8941 22.8527 15.1345 23.2155C15.3748 23.5782 15.5031 24.0047 15.5031 24.441C15.5031 25.026 15.2727 25.5871 14.8625 26.0008C14.4522 26.4145 13.8958 26.6469 13.3157 26.6469Z" fill="#FBD10A"/>
<path d="M13.2863 25.7642C14.0112 25.7642 14.5988 25.1717 14.5988 24.4407C14.5988 23.7098 14.0112 23.1172 13.2863 23.1172C12.5615 23.1172 11.9739 23.7098 11.9739 24.4407C11.9739 25.1717 12.5615 25.7642 13.2863 25.7642Z" fill="#FBD10A"/>
<path d="M10.1133 29.5405V34.5582C10.113 34.6311 10.1303 34.703 10.1639 34.7676C10.1974 34.8322 10.2462 34.8875 10.3058 34.9288C10.3671 34.9674 10.4366 34.9907 10.5086 34.9969C10.5806 35.003 10.6531 34.9918 10.7199 34.9641L13.3157 33.8582L15.8823 34.9641C15.9491 34.9918 16.0216 35.003 16.0936 34.9969C16.1656 34.9907 16.2352 34.9674 16.2964 34.9288C16.3568 34.8878 16.4064 34.8327 16.4409 34.7681C16.4755 34.7036 16.4939 34.6315 16.4948 34.5582V29.5405C15.5426 30.1474 14.4392 30.4696 13.3128 30.4696C12.1863 30.4696 11.083 30.1474 10.1308 29.5405H10.1133Z" fill="#FBD10A"/>
</g>
</g>
<defs>
<clipPath id="clip0_195_388">
<rect width="30.2529" height="35" fill="white" transform="translate(0.873535)"/>
</clipPath>
</defs>
</svg>
