<svg width="138" height="49" viewBox="0 0 138 49" fill="none" xmlns="http://www.w3.org/2000/svg">
<g id="Group 7">
<g id="&#208;&#161;&#208;&#187;&#208;&#190;&#208;&#185;_x0020_1">
<g id="_1615885254080">
<g id="Group">
<path id="Vector" fill-rule="evenodd" clip-rule="evenodd" d="M0.127441 21.1873C0.603997 20.8926 2.17202 18.2724 6.29192 17.3063C9.1205 16.6512 12.2412 17.3226 14.8545 18.1087C23.3864 20.696 37.1758 29.3752 44.032 20.0574C44.9237 18.862 45.4617 18.4362 45.4463 16.2418C45.431 11.2636 45.6001 4.86065 45.4002 0.242676L0.158187 0.259052L0.127441 21.1873Z" fill="white"/>
<path id="Vector_2" fill-rule="evenodd" clip-rule="evenodd" d="M0.142957 47.913L45.4157 48.044L45.4618 27.3286C38.0061 36.1879 23.0022 27.5579 15.2544 24.8559C8.78245 22.6124 4.57031 22.858 1.0192 27.8363C-0.441208 29.8505 0.0968385 33.3549 0.0968385 37.2687C0.0968385 40.6421 -0.0876346 44.6051 0.142957 47.913Z" fill="white"/>
</g>
</g>
</g>
<path id="Vector_3" fill-rule="evenodd" clip-rule="evenodd" d="M122.079 34.5911L125.233 43.9348H129.364L132.386 34.5707L133.175 47.4106H138L136.385 26.0244L131.129 26.0653L127.223 38.1282L123.431 26.0039L118.174 26.0857L116.728 47.431L121.403 47.4106L122.079 34.5911ZM56.6498 26.0653H61.6438H68.4402H73.3967H73.4343V47.4106H68.4402V30.4202H61.6438V47.4106H56.6498V26.0653ZM82.3334 30.6042C84.9618 30.2975 87.2523 30.3998 87.2148 33.4053C87.196 36.4312 84.9431 36.2472 82.3334 36.2268V30.6042ZM82.371 40.8884C84.3047 40.7248 87.8907 41.236 90.0498 39.0278C91.5705 37.474 92.6594 34.3458 91.8333 31.0131C90.3314 25.0634 83.6476 25.5337 77.5083 26.0857V47.4106H82.3146L82.371 40.8884ZM103.98 25.3701C109.688 25.3701 114.325 30.4202 114.325 36.6357C114.325 42.8716 109.688 47.9012 103.98 47.9012C98.273 47.9012 93.6357 42.8716 93.6357 36.6357C93.6357 30.4202 98.273 25.3701 103.98 25.3701ZM103.98 30.502C107.097 30.502 109.613 33.2621 109.613 36.6357C109.613 40.0297 107.097 42.7694 103.98 42.7694C100.864 42.7694 98.3481 40.0297 98.3481 36.6357C98.3481 33.2621 100.864 30.502 103.98 30.502Z" fill="white"/>
<path id="Vector_4" fill-rule="evenodd" clip-rule="evenodd" d="M66.1602 0.239258C69.2704 0.239258 72.0433 1.70309 73.9357 4.02918L70.3571 7.29773C69.3266 6.05448 67.8277 5.27243 66.1602 5.27243C63.0687 5.27243 60.5393 7.97952 60.5393 11.2882C60.5393 14.6169 63.0687 17.3039 66.1602 17.3039C67.8277 17.3039 69.3079 16.5419 70.3383 15.3187L73.917 18.5873C72.0246 20.8933 69.2516 22.3371 66.1602 22.3371C60.4644 22.3371 55.8365 17.4042 55.8365 11.2882C55.8365 5.19222 60.4644 0.239258 66.1602 0.239258ZM122.294 17.3841L120.739 17.3641V12.9325C122.294 12.8523 124.58 12.5515 125.179 14.2359C126.06 16.7224 124.261 17.3841 122.294 17.3841ZM115.755 0.90099H115.774V0.880937L118.865 0.90099H120.739L128.477 0.941095L128.42 5.19222H120.739V8.46078C123.736 8.68135 126.06 8.30036 128.158 10.0449C129.751 11.3684 130.8 14.3161 129.994 17.3039C128.552 22.5577 122.725 22.0564 117.16 21.8558H115.755V21.8157H115.699L115.755 6.85658V0.90099ZM104.532 6.01437L106.331 13.2934L102.602 13.2333L104.532 6.01437ZM101.553 17.3841L107.511 17.4042L108.897 21.8558H113.731L107.061 0.880937H101.984L95.4448 21.8358L100.185 21.8558L101.553 17.3841ZM76.5213 0.921042H81.5051V5.19222V9.20272H88.2876V5.19222V0.921042H93.2339H93.2714V21.8558H88.2876V16.6021V13.6945H81.5051V16.6021V21.8558H76.5213V0.921042Z" fill="white"/>
</g>
</svg>
