<svg width="183" height="192" viewBox="0 0 183 192" fill="none" xmlns="http://www.w3.org/2000/svg">
<g filter="url(#filter0_d_195_1167)">
<path d="M93.4044 29.5279C94.5539 27.5227 97.4461 27.5227 98.5956 29.5279C99.6432 31.3555 102.201 31.5569 103.522 29.9156C104.971 28.1149 107.828 28.5674 108.649 30.7277C109.398 32.6967 111.893 33.2958 113.454 31.8813C115.167 30.3295 117.918 31.2232 118.392 33.4855C118.823 35.5474 121.194 36.5294 122.957 35.3766C124.892 34.1118 127.469 35.4248 127.582 37.7333C127.686 39.8374 129.874 41.1781 131.796 40.3153C133.904 39.3687 136.244 41.0687 135.996 43.3666C135.769 45.461 137.72 47.1275 139.753 46.576C141.984 45.9709 144.029 48.016 143.424 50.2467C142.872 52.2798 144.539 54.2311 146.633 54.0044C148.931 53.7557 150.631 56.0956 149.685 58.2041C148.822 60.126 150.163 62.3139 152.267 62.4176C154.575 62.5314 155.888 65.1084 154.623 67.043C153.471 68.8062 154.453 71.1769 156.515 71.6085C158.777 72.082 159.671 74.8327 158.119 76.5456C156.704 78.1067 157.303 80.6018 159.272 81.3507C161.433 82.1723 161.885 85.029 160.084 86.478C158.443 87.7986 158.644 90.3568 160.472 91.4044C162.477 92.5539 162.477 95.4461 160.472 96.5956C158.644 97.6432 158.443 100.201 160.084 101.522C161.885 102.971 161.433 105.828 159.272 106.649C157.303 107.398 156.704 109.893 158.119 111.454C159.671 113.167 158.777 115.918 156.515 116.392C154.453 116.823 153.471 119.194 154.623 120.957C155.888 122.892 154.575 125.469 152.267 125.582C150.163 125.686 148.822 127.874 149.685 129.796C150.631 131.904 148.931 134.244 146.633 133.996C144.539 133.769 142.872 135.72 143.424 137.753C144.029 139.984 141.984 142.029 139.753 141.424C137.72 140.872 135.769 142.539 135.996 144.633C136.244 146.931 133.904 148.631 131.796 147.685C129.874 146.822 127.686 148.163 127.582 150.267C127.469 152.575 124.892 153.888 122.957 152.623C121.194 151.471 118.823 152.453 118.392 154.515C117.918 156.777 115.167 157.671 113.454 156.119C111.893 154.704 109.398 155.303 108.649 157.272C107.828 159.433 104.971 159.885 103.522 158.084C102.201 156.443 99.6432 156.644 98.5956 158.472C97.4461 160.477 94.5539 160.477 93.4044 158.472C92.3568 156.644 89.7986 156.443 88.478 158.084C87.029 159.885 84.1723 159.433 83.3507 157.272C82.6018 155.303 80.1067 154.704 78.5456 156.119C76.8327 157.671 74.082 156.777 73.6085 154.515C73.1769 152.453 70.8062 151.471 69.043 152.623C67.1084 153.888 64.5314 152.575 64.4176 150.267C64.3139 148.163 62.126 146.822 60.2041 147.685C58.0956 148.631 55.7557 146.931 56.0044 144.633C56.2311 142.539 54.2798 140.872 52.2467 141.424C50.016 142.029 47.9709 139.984 48.576 137.753C49.1275 135.72 47.461 133.769 45.3666 133.996C43.0687 134.244 41.3687 131.904 42.3153 129.796C43.1781 127.874 41.8374 125.686 39.7333 125.582C37.4248 125.469 36.1118 122.892 37.3766 120.957C38.5294 119.194 37.5474 116.823 35.4855 116.392C33.2232 115.918 32.3295 113.167 33.8813 111.454C35.2958 109.893 34.6967 107.398 32.7277 106.649C30.5674 105.828 30.1149 102.971 31.9156 101.522C33.5569 100.201 33.3555 97.6432 31.5279 96.5956C29.5227 95.4461 29.5227 92.5539 31.5279 91.4044C33.3555 90.3568 33.5569 87.7986 31.9156 86.478C30.1149 85.029 30.5674 82.1724 32.7277 81.3507C34.6967 80.6018 35.2958 78.1067 33.8813 76.5456C32.3295 74.8327 33.2232 72.082 35.4855 71.6085C37.5474 71.1769 38.5294 68.8062 37.3766 67.043C36.1118 65.1084 37.4248 62.5314 39.7333 62.4176C41.8374 62.3139 43.1781 60.126 42.3153 58.2041C41.3687 56.0956 43.0687 53.7557 45.3666 54.0044C47.461 54.2311 49.1275 52.2798 48.576 50.2467C47.9709 48.016 50.016 45.9709 52.2467 46.576C54.2798 47.1275 56.2311 45.461 56.0044 43.3666C55.7557 41.0687 58.0956 39.3687 60.2041 40.3153C62.126 41.1781 64.3139 39.8374 64.4176 37.7333C64.5314 35.4248 67.1084 34.1118 69.043 35.3766C70.8062 36.5294 73.1769 35.5474 73.6085 33.4855C74.082 31.2232 76.8327 30.3295 78.5456 31.8813C80.1067 33.2958 82.6018 32.6967 83.3507 30.7277C84.1724 28.5674 87.029 28.1149 88.478 29.9156C89.7986 31.5569 92.3568 31.3555 93.4044 29.5279Z" fill="#FAD00A"/>
</g>
<defs>
<filter id="filter0_d_195_1167" x="0.444216" y="0.292894" width="191.112" height="191.112" filterUnits="userSpaceOnUse" color-interpolation-filters="sRGB">
<feFlood flood-opacity="0" result="BackgroundImageFix"/>
<feColorMatrix in="SourceAlpha" type="matrix" values="0 0 0 0 0 0 0 0 0 0 0 0 0 0 0 0 0 0 127 0" result="hardAlpha"/>
<feOffset dy="1.84874"/>
<feGaussianBlur stdDeviation="14.7899"/>
<feComposite in2="hardAlpha" operator="out"/>
<feColorMatrix type="matrix" values="0 0 0 0 0.976471 0 0 0 0 0.764706 0 0 0 0 0.054902 0 0 0 0.3 0"/>
<feBlend mode="normal" in2="BackgroundImageFix" result="effect1_dropShadow_195_1167"/>
<feBlend mode="normal" in="SourceGraphic" in2="effect1_dropShadow_195_1167" result="shape"/>
</filter>
</defs>
</svg>
