<svg width="40" height="55" viewBox="0 0 40 55" fill="none" xmlns="http://www.w3.org/2000/svg">
<path d="M15.8828 0.000314506C14.2628 0.0174921 12.6985 0.827504 11.7996 2.275L11.4871 2.77825C11.0424 3.49283 10.2653 3.92752 9.40762 3.94355L8.8056 3.95697C6.20088 4.00965 4.11934 6.03465 4.06522 8.5712L4.05373 9.15721C4.03609 9.99089 3.58722 10.7485 2.85428 11.1814L2.33727 11.4833C0.109025 12.7957 -0.651752 15.5669 0.604726 17.7885L0.894249 18.3007C1.30719 19.0324 1.30719 19.904 0.894249 20.6358L0.604726 21.1502C-0.650575 23.3718 0.111322 26.1407 2.33957 27.4531L2.85428 27.7573C3.5884 28.1902 4.03609 28.9455 4.05373 29.7792L4.06522 30.3652C4.11934 32.9006 6.20088 34.929 8.8056 34.9817L9.40762 34.9929C10.2641 35.0101 11.0424 35.4447 11.4871 36.1604L11.7973 36.6614C12.7068 38.1238 14.2969 38.9361 15.9357 38.9361C16.7275 38.9361 17.529 38.7464 18.2726 38.3479L18.8011 38.0661C19.5517 37.663 20.4505 37.663 21.2023 38.0661L21.7285 38.3479C24.0108 39.5686 26.8566 38.8292 28.2037 36.6614L28.5162 36.1582C28.9609 35.4436 29.7381 35.0089 30.5957 34.9929L31.1954 34.9795C33.8001 34.9268 35.884 32.9018 35.9381 30.3652L35.9496 29.7792C35.9672 28.9455 36.4138 28.1879 37.1467 27.755L37.6638 27.4531C39.8897 26.1407 40.6516 23.3718 39.3963 21.1502L39.1068 20.6358C38.6938 19.904 38.6938 19.0324 39.1068 18.3007L39.3963 17.7885C40.6516 15.5669 39.8897 12.7957 37.6615 11.4833L37.1467 11.1814C36.4126 10.7485 35.9649 9.99089 35.9473 9.15721L35.9358 8.5712C35.8817 6.03579 33.8001 4.00965 31.1954 3.95697L30.5934 3.94355C29.7369 3.92637 28.9586 3.49174 28.5139 2.77601L28.2037 2.27724C27.3037 0.82974 25.7382 0.0174921 24.1182 0.000314506C23.3099 -0.00884686 22.4873 0.182021 21.7285 0.588557L21.2 0.870376C20.4494 1.27348 19.5505 1.27348 18.7988 0.870376L18.2726 0.588557C17.5137 0.180876 16.6911 -0.00770169 15.8828 0.000314506ZM28.569 11.5504L30.552 12.7851L19.3617 29.8105L9.50643 21.177L11.0827 19.4772L18.8746 26.3035L28.569 11.5504Z" fill="#FBD10A"/>
<path opacity="0.4" d="M33.5166 36.6695C32.7685 36.949 31.9625 37.1155 31.1163 37.1327L30.5191 37.1439C30.4677 37.145 30.432 37.1652 30.4051 37.2088L30.0951 37.7101C28.9233 39.6121 26.9602 40.8177 24.7497 41.0445L24.4146 41.7987L21.2712 48.8503L23.6328 54.1518C23.7962 54.5196 24.1441 54.775 24.5491 54.8277C24.6028 54.8346 24.6528 54.8389 24.7041 54.8389C25.0554 54.8389 25.393 54.6819 25.6159 54.4092L29.9355 49.1099H37.5445C37.9425 49.1099 38.3134 48.9106 38.5269 48.5817C38.7405 48.2529 38.7691 47.8381 38.6022 47.4829L33.5166 36.6695ZM6.47048 36.6896L1.39861 47.4829C1.23172 47.8381 1.25909 48.2507 1.47384 48.5795C1.68625 48.9095 2.05832 49.1099 2.4563 49.1099H10.0652L14.3849 54.4092C14.6066 54.6819 14.9431 54.8389 15.2944 54.8389C15.3446 54.8389 15.3958 54.8346 15.4471 54.8277C15.8521 54.775 16.2001 54.5196 16.3635 54.1518L22.2765 40.8812C21.6789 40.7345 21.0981 40.5154 20.5554 40.2232L20.0266 39.939C20.0044 39.9264 19.9815 39.9211 19.9605 39.9211C19.9407 39.9211 19.9235 39.9264 19.899 39.939L19.3747 40.221C18.3196 40.7904 17.1278 41.0938 15.9304 41.0938C13.4141 41.0938 11.1341 39.8286 9.83045 37.7123L9.52044 37.2088C9.49359 37.1652 9.45898 37.145 9.40646 37.1439L8.80924 37.1327C7.98643 37.1155 7.20108 36.9554 6.47048 36.6896Z" fill="#FBD10A"/>
</svg>
