<svg width="239" height="179" viewBox="0 0 239 179" fill="none" xmlns="http://www.w3.org/2000/svg">
<path opacity="0.4" d="M170.534 0C180.549 0 189.744 1.72395 198.117 5.17186C206.655 8.61977 213.879 14.0379 219.79 21.4263C225.865 28.6505 230.544 37.8449 233.828 49.0096C237.276 60.1742 239 73.4733 239 88.9068C239 104.505 237.358 117.886 234.074 129.05C230.79 140.215 226.193 149.409 220.282 156.634C214.372 163.858 207.148 169.194 198.61 172.642C190.236 176.09 180.878 177.814 170.534 177.814C160.19 177.814 150.75 176.09 142.212 172.642C133.838 169.194 126.614 163.858 120.539 156.634C114.629 149.409 110.031 140.215 106.748 129.05C103.628 117.886 102.068 104.505 102.068 88.9068C102.068 73.4733 103.71 60.1742 106.994 49.0096C110.278 37.8449 114.957 28.6505 121.032 21.4263C127.107 14.0379 134.331 8.61977 142.704 5.17186C151.078 1.72395 160.354 0 170.534 0ZM170.534 146.29C181.042 146.29 189.251 141.857 195.162 132.991C201.073 124.125 204.028 109.43 204.028 88.9068C204.028 68.5477 201.073 53.9352 195.162 45.0691C189.251 36.0389 181.042 31.5237 170.534 31.5237C159.862 31.5237 151.57 36.0389 145.66 45.0691C139.913 53.9352 137.04 68.5477 137.04 88.9068C137.04 109.43 139.913 124.125 145.66 132.991C151.57 141.857 159.862 146.29 170.534 146.29Z" fill="#FAD00A"/>
<path d="M4.92559 51.4724C5.74652 42.6063 7.79885 35.0537 11.0826 28.8147C14.3663 22.5756 18.7172 17.2395 24.1354 12.8065C29.7177 8.37349 36.121 5.17186 43.3452 3.20162C50.7335 1.06721 59.025 0 68.2194 0C75.6078 0 82.5857 0.82093 89.1531 2.46279C95.8848 3.94047 101.96 6.48535 107.378 10.0974C112.96 13.7095 117.393 18.4709 120.677 24.3816C124.125 30.2924 125.849 37.5165 125.849 46.0542C125.849 53.2784 124.043 60.1742 120.431 66.7417C116.819 73.3091 111.565 78.481 104.669 82.2573C114.684 85.541 121.908 91.0413 126.341 98.758C130.774 106.475 132.827 115.505 132.498 125.849C132.17 135.372 130.118 143.417 126.341 149.984C122.565 156.552 117.722 161.97 111.811 166.239C105.9 170.343 99.0864 173.381 91.3696 175.351C83.6529 177.321 75.6078 178.306 67.2343 178.306C48.6812 178.306 33.494 174.119 21.6726 165.746C9.85117 157.372 2.62698 144.073 0 125.849H35.2179C36.3672 129.953 38.0091 133.319 40.1435 135.946C42.4421 138.573 44.987 140.708 47.7782 142.349C50.7335 143.827 53.8531 144.894 57.1368 145.551C60.4205 146.044 63.7863 146.29 67.2343 146.29C71.1747 146.29 74.951 145.879 78.5631 145.059C82.1752 144.238 85.3768 142.924 88.168 141.118C90.9592 139.312 93.1757 136.931 94.8176 133.976C96.4594 130.856 97.2803 127.08 97.2803 122.647C97.2803 119.363 96.5415 116.326 95.0638 113.535C93.7503 110.744 91.9443 108.691 89.6457 107.378C86.6903 105.408 83.4066 104.176 79.7945 103.684C76.3466 103.027 72.7345 102.698 68.9582 102.698H51.4724V73.6375H63.2938C67.5626 73.6375 71.421 73.145 74.8689 72.1598C78.3168 71.0105 81.4364 69.2866 84.2275 66.988C86.1978 65.1819 87.8396 63.1296 89.1531 60.831C90.4666 58.3682 91.1234 55.4949 91.1234 52.2112C91.1234 48.2707 90.4666 44.987 89.1531 42.36C87.8396 39.5689 86.0336 37.4344 83.735 35.9568C81.4364 34.3149 78.7273 33.1656 75.6078 32.5089C72.4882 31.8521 69.2045 31.5237 65.7566 31.5237C59.5175 31.5237 54.0173 33.1656 49.2559 36.4493C44.4945 39.5689 41.3749 44.5766 39.8973 51.4724H4.92559Z" fill="#FAD00A"/>
</svg>
