<svg width="17" height="18" viewBox="0 0 17 18" fill="none" xmlns="http://www.w3.org/2000/svg">
<path d="M8.41935 0C8.76774 0 9.07742 0.0387103 9.34839 0.116131C9.65806 0.15484 9.90968 0.212904 10.1032 0.290322C10.3355 0.406452 10.5484 0.503226 10.7419 0.580644L9 7.54839L9.29032 7.83871L14.5161 2.90323C15.2516 3.2129 15.8129 3.75484 16.2 4.52903C16.6258 5.26452 16.8387 6.07742 16.8387 6.96774L9.87097 8.70968V9.29032L16.8387 11.0323C16.8387 11.9226 16.6258 12.7548 16.2 13.529C15.8129 14.2645 15.2516 14.7871 14.5161 15.0968L9.29032 10.1613L9 10.4516L10.7419 17.4194C10.5484 17.5355 10.3355 17.6323 10.1032 17.7097C9.63871 17.9032 9.07742 18 8.41935 18C7.76129 18 7.2 17.9032 6.73548 17.7097C6.50322 17.6323 6.29032 17.5355 6.09677 17.4194L7.83871 10.4516L7.54839 10.1613L2.32258 15.0968C1.5871 14.7871 1.00645 14.2645 0.580645 13.529C0.193548 12.7548 0 11.9226 0 11.0323L6.96774 9.29032V8.70968L0 6.96774C0 6.07742 0.193548 5.26452 0.580645 4.52903C1.00645 3.75484 1.5871 3.2129 2.32258 2.90323L7.54839 7.83871L7.83871 7.54839L6.09677 0.580644C6.29032 0.503226 6.50322 0.406452 6.73548 0.290322C6.92903 0.212904 7.16129 0.15484 7.43226 0.116131C7.70323 0.0387103 8.03226 0 8.41935 0Z" fill="#FBD10A"/>
</svg>
