<svg width="22" height="22" viewBox="0 0 22 22" fill="none" xmlns="http://www.w3.org/2000/svg">
<path fill-rule="evenodd" clip-rule="evenodd" d="M10.9932 21.811H10.9887C9.16415 21.8103 7.37138 21.3525 5.77909 20.484L0 22L1.54658 16.3509C0.592574 14.6976 0.0905811 12.8222 0.0913992 10.9009C0.0937906 4.89018 4.98424 0 10.9931 0C13.9094 0.00125865 16.6465 1.13656 18.7047 3.19719C20.763 5.25771 21.8958 7.99664 21.8947 10.9095C21.8923 16.9188 17.0038 21.8085 10.9932 21.811ZM6.04683 18.5106L6.3777 18.7069C7.76888 19.5325 9.36358 19.9693 10.9895 19.9699H10.9932C15.9873 19.9699 20.052 15.9051 20.054 10.9089C20.0549 8.48781 19.1134 6.21133 17.4027 4.49862C15.6919 2.7859 13.4169 1.84223 10.9967 1.84139C5.99875 1.84139 1.93398 5.90579 1.932 10.9016C1.9313 12.6137 2.41034 14.2811 3.31736 15.7237L3.5328 16.0665L2.61744 19.4102L6.04683 18.5106ZM16.4853 13.5019C16.4173 13.3883 16.2357 13.3201 15.9633 13.1837C15.6909 13.0474 14.3517 12.3885 14.102 12.2975C13.8523 12.2067 13.6707 12.1613 13.4891 12.4339C13.3075 12.7065 12.7855 13.3201 12.6266 13.5019C12.4677 13.6837 12.3088 13.7065 12.0365 13.5701C11.7641 13.4338 10.8864 13.1462 9.84597 12.2181C9.03619 11.4958 8.48952 10.6038 8.33062 10.3311C8.17173 10.0584 8.31368 9.91105 8.45005 9.77522C8.5726 9.65313 8.72246 9.45699 8.85865 9.29798C8.99484 9.13897 9.04023 9.02527 9.13103 8.84361C9.22182 8.66173 9.17644 8.50272 9.10832 8.36637C9.04023 8.23001 8.49548 6.88923 8.26849 6.34382C8.04736 5.81266 7.82281 5.88462 7.65562 5.87623C7.49691 5.86826 7.31512 5.86658 7.13355 5.86658C6.95197 5.86658 6.65685 5.93475 6.40717 6.20746C6.1575 6.48017 5.45381 7.13918 5.45381 8.47986C5.45381 9.82064 6.42986 11.1159 6.56606 11.2977C6.70225 11.4795 8.48681 14.2308 11.2193 15.4107C11.8692 15.6914 12.3766 15.859 12.7722 15.9845C13.4247 16.1919 14.0186 16.1626 14.4879 16.0924C15.0112 16.0143 16.0995 15.4335 16.3265 14.7973C16.5534 14.1609 16.5534 13.6155 16.4853 13.5019Z" fill="white"/>
</svg>
